<svg xmlns="http://www.w3.org/2000/svg" viewBox="0 0 500 500"><g id="freepik--background-simple--inject-142"><path d="M418.64,146.75l-1.71-2.82c-14.45-23.81-40.56-38.16-68.1-36.41A72.18,72.18,0,0,0,338.29,109c-25,5.36-46.82,24.29-55.85,48.54-5.31,14.26-6.79,30.68-16.87,42-13.12,14.73-35.38,15.19-55,14.58s-41.86-.09-54.91,14.7c-8.17,9.26-10.77,22.43-10.11,34.84,1.74,32.84,24.63,62.2,53.73,76.8s63.36,15.9,95.21,9.48c44.62-9,87.05-33.7,112.56-71.85S439.05,187.93,418.64,146.75Z" style="fill:#f5f5f5"></path><path d="M92.87,155,94,156.23A38.23,38.23,0,0,0,131.76,168a36.44,36.44,0,0,0,5.16-1.75,40.09,40.09,0,0,0,23.39-29.8c1.3-7.68.46-16.08,4.43-22.74C169.91,105,181.06,102.61,191,101S212,97,217.16,88.33c3.21-5.45,3.25-12.32,1.72-18.49-4-16.35-18.39-28.9-34.44-33.43s-33.4-1.88-48.79,4.43c-21.57,8.83-40.52,25.35-49.66,47S78.63,136.24,92.87,155Z" style="fill:#f5f5f5"></path></g><g id="freepik--Floor--inject-142"><path d="M467.49,478.49c0,.14-97.38.26-217.48.26s-217.5-.12-217.5-.26,97.36-.26,217.5-.26S467.49,478.35,467.49,478.49Z" style="fill:#263238"></path></g><g id="freepik--Sofa--inject-142"><path d="M318,443.22l3.71,35.27H310.75l-14.4-35.43Z" style="fill:#263238"></path><path d="M258.39,442.79l3.71,35.35H251.18l-14.25-35.49Z" style="fill:#263238"></path><path d="M323.83,222.72c-5.92-9.05-124.29-11.43-129.44-2.11l-44,81.82-65-3.58s-8.74-.49-17.37,7.62c-4.26,4-4.27,29.47-3.17,39.31.73,6.56,9.91,95.74,9.91,95.74l245.09,1.7S329.74,231.76,323.83,222.72Z" style="fill:#455a64"></path><path d="M250.31,444.93s0-.27,0-.79,0-1.3-.05-2.29c0-2-.07-5-.13-8.81-.09-7.64-.22-18.64-.38-32.13l.2.2L175.47,401l-77.13-.27.2-.16a125.32,125.32,0,0,0-1.63,30.06c.22,3.56.54,6.33.77,8.2.12.92.21,1.63.28,2.13s.08.73.08.73a96.25,96.25,0,0,1-1.35-11.05,123.85,123.85,0,0,1,1.46-30.14l0-.16h.17l77.12.14,74.44.25h.2v.2c.09,13.48.16,24.48.21,32.13,0,3.8,0,6.77,0,8.8v2.3C250.33,444.66,250.31,444.93,250.31,444.93Z" style="fill:#263238"></path><path d="M244,306.91h.5A10,10,0,0,1,246,307a15.17,15.17,0,0,1,5.42,1.75,20.35,20.35,0,0,1,6.78,6.1,27.42,27.42,0,0,1,4.55,11.39,79.07,79.07,0,0,1,.86,15.16c-.06,5.5-.29,11.44-.72,17.74-.84,12.6-2.53,26.65-4.35,41.81l0,.21h-.22l-62-.13-112.41-.35h-.18v-.18A99.11,99.11,0,0,1,85,378.16c1.2-6.48,3.2-12,6-15.73a16.1,16.1,0,0,1,4.41-4.31l.54-.37.57-.29,1.06-.54c.72-.23,1.36-.5,2-.65l1.59-.32c.46-.05.85-.06,1.16-.08l.95-.05s-.32.05-.94.1c-.31,0-.7.05-1.16.11l-1.57.35c-.59.15-1.22.43-1.93.67l-1,.54-.56.29-.53.37a16.12,16.12,0,0,0-4.32,4.3c-2.7,3.77-4.66,9.21-5.84,15.67a100.5,100.5,0,0,0-1.22,22.24l-.19-.17,112.41.21,62,.17-.24.21c1.84-15.15,3.56-29.19,4.43-41.78.44-6.29.69-12.22.77-17.72a80.23,80.23,0,0,0-.8-15.1A27.32,27.32,0,0,0,258,315a20.43,20.43,0,0,0-6.68-6.09,15.29,15.29,0,0,0-5.35-1.81C244.71,306.9,244,307,244,306.91Z" style="fill:#263238"></path><polygon points="78.33 441.54 74.45 478.49 85.38 478.49 99.39 441.69 78.33 441.54" style="fill:#263238"></polygon><path d="M302,304.13a5.13,5.13,0,0,1,.84-.16,5.43,5.43,0,0,1,2.47.18,3.94,3.94,0,0,1,2.43,3.08,5.33,5.33,0,0,1-1.74,5l0-.22a5.3,5.3,0,0,1,1.4,9.25V321a4.64,4.64,0,0,1,2,4,8.23,8.23,0,0,1-.54,2.41,3.14,3.14,0,0,1-1.81,1.83l.05-.34a3.86,3.86,0,0,1,1.46,2.2,7.48,7.48,0,0,1,.09,2.71,7.05,7.05,0,0,1-.87,2.67,4.69,4.69,0,0,1-2.14,2v-.4a3.52,3.52,0,0,1,1.78,1.86,4.33,4.33,0,0,1,.17,2.64,5.84,5.84,0,0,1-1.18,2.41,3.05,3.05,0,0,1-2.5,1.16l.13-.43a3.59,3.59,0,0,1,1.76,2.38,5.26,5.26,0,0,1-.29,3,4.89,4.89,0,0,1-5.12,3l.24-.38a5.68,5.68,0,0,1,.92,2.58,4.13,4.13,0,0,1-.64,2.76,3.26,3.26,0,0,1-2.55,1.37,2.72,2.72,0,0,1-2.63-1.31l.44-.25a3.18,3.18,0,1,1-5.86,2h.51a5.07,5.07,0,0,1-2.59,4.07,4,4,0,0,1-2.54.45,4.07,4.07,0,0,1-2.25-1.33,3.63,3.63,0,0,1-.71-3.8l.42.3a4.25,4.25,0,1,1-5.58-6.39l.16.46a4.47,4.47,0,0,1-2.17-8.43l.06.47a5.19,5.19,0,0,1-3.76-5,5.86,5.86,0,0,1,.92-3.06,3,3,0,0,1,1.29-1,4.28,4.28,0,0,1,1.57-.26v.47a5.27,5.27,0,0,1-2.29-.42,2.82,2.82,0,0,1-1.59-1.67,3.64,3.64,0,0,1,1.15-4.1l.18.4a4,4,0,0,1-1.91-7.82l.13.38a5.28,5.28,0,0,1-6.72-3,5.33,5.33,0,0,1,2.35-6.25l.14.3a3.94,3.94,0,0,1-4-6.65l.11.2a4.26,4.26,0,0,1-4.49-1.44,4,4,0,0,1-.68-3.41,4.12,4.12,0,0,1,1-1.9,3,3,0,0,1,.57-.46s-.2.15-.53.5a4.38,4.38,0,0,0-1,1.88,3.86,3.86,0,0,0,.71,3.28,4.09,4.09,0,0,0,4.27,1.33l.54-.17-.42.37a3.81,3.81,0,0,0-.91,4.27,3.75,3.75,0,0,0,4.64,1.9l.14.29a5,5,0,0,0-2.16,5.84,4.89,4.89,0,0,0,6.21,2.71l.14.39a3.6,3.6,0,0,0,1.71,7l1-.21-.82.61a3.18,3.18,0,0,0-1,3.58c.43,1.34,2,1.81,3.42,1.78v.47a2.87,2.87,0,0,0-2.47,1.07,5.54,5.54,0,0,0-.81,2.79,4.68,4.68,0,0,0,3.39,4.46l.63.16-.58.31a4,4,0,0,0,1.93,7.47l.77,0-.6.48a3.73,3.73,0,1,0,4.9,5.61l1-1-.58,1.25a3.11,3.11,0,0,0,.64,3.24,3.2,3.2,0,0,0,4.14.76,4.57,4.57,0,0,0,2.33-3.64h.51a2.67,2.67,0,1,0,4.92-1.67l.44-.26a2.23,2.23,0,0,0,2.15,1.05,2.79,2.79,0,0,0,2.17-1.16,4.43,4.43,0,0,0-.28-4.78l-.3-.46.54.08a4.4,4.4,0,0,0,4.6-2.68,4.8,4.8,0,0,0,.28-2.74,3.15,3.15,0,0,0-1.54-2.08l-.89-.51,1,.08a2.59,2.59,0,0,0,2.13-1,5.43,5.43,0,0,0,1.09-2.22,4,4,0,0,0-.14-2.36,3.07,3.07,0,0,0-1.56-1.63l-.44-.21.45-.19a5.23,5.23,0,0,0,2.77-4.28,7.07,7.07,0,0,0-.07-2.56,3.43,3.43,0,0,0-1.3-2l-.3-.23.35-.12a2.75,2.75,0,0,0,1.59-1.61A7.86,7.86,0,0,0,309,325a4.3,4.3,0,0,0-1.84-3.71l-.2-.13.19-.14A5.07,5.07,0,0,0,309,315.9a5.13,5.13,0,0,0-3.19-3.61l-.22-.07.18-.15a5.15,5.15,0,0,0,1.71-4.8,3.78,3.78,0,0,0-2.28-3,5.78,5.78,0,0,0-2.43-.25Z" style="fill:#AE883D"></path><path d="M304.37,303.66,259.52,302a105.6,105.6,0,0,1,16.61,43.42c.68,4.81,1.25,10.11,4.79,13.43,4.6,4.33,12.54,3.06,17.18-1.23s6.67-10.69,7.92-16.88C308.49,328.44,308.6,315.44,304.37,303.66Zm.06,15.42a1.22,1.22,0,0,1-.56.39.56.56,0,0,1-.62-.18.79.79,0,0,1-.11-.43,3.86,3.86,0,0,1,2.07-3.47v.08A4,4,0,0,1,304.43,319.08Zm-2.33,16.06a1.1,1.1,0,1,1-1.1,1.1A1.1,1.1,0,0,1,302.1,335.14Zm-.45-20.81a1.1,1.1,0,0,1,1.44.59,1.1,1.1,0,1,1-2,.84A1.08,1.08,0,0,1,301.65,314.33Zm.21,11.24a1.1,1.1,0,0,1,2.19-.22,1.1,1.1,0,1,1-2.19.22Zm3-11.41-.06-.05a3.92,3.92,0,0,1-2.85-2.34,1.32,1.32,0,0,1-.1-.68.59.59,0,0,1,.46-.47.72.72,0,0,1,.42.11A3.81,3.81,0,0,1,304.82,314.16Zm-.79-8.71v.08a3.94,3.94,0,0,1-.77,3.6,1.38,1.38,0,0,1-.56.4.59.59,0,0,1-.63-.19.77.77,0,0,1-.1-.42A3.8,3.8,0,0,1,304,305.45Zm-3.56-1.07a1.1,1.1,0,0,1,1.44.59,1.11,1.11,0,1,1-1.44-.59Zm-1.62,42a1.1,1.1,0,1,1,.92,1.26A1.1,1.1,0,0,1,298.85,346.37Zm-4.56,7.3a1.1,1.1,0,1,1,0,1.55A1.09,1.09,0,0,1,294.29,353.67Zm-11.86-4.36a1.11,1.11,0,1,1-.82,1.35A1.11,1.11,0,0,1,282.43,349.31Zm-2.93-10.23a1.11,1.11,0,1,1-1,1.22A1.12,1.12,0,0,1,279.5,339.08Zm-2.05-11.91a1.12,1.12,0,0,1,0,2.23,1.12,1.12,0,1,1,0-2.23Zm-4.92-11.85a1.12,1.12,0,1,1,.64,2.14,1.12,1.12,0,0,1-.64-2.14Zm-5.36-9.9a1.12,1.12,0,1,1-.75,1.39A1.12,1.12,0,0,1,267.17,305.42ZM265,307.25a3.81,3.81,0,0,1-.52-4,.72.72,0,0,1,.26-.35.58.58,0,0,1,.65.07,1.33,1.33,0,0,1,.36.59,4,4,0,0,1-.73,3.62Zm4.1,3.52a1.3,1.3,0,0,1-.68.05,3.94,3.94,0,0,1-2.88-2.31l-.06-.06a3.84,3.84,0,0,1,3.8,1.38.78.78,0,0,1,.19.4A.59.59,0,0,1,269.12,310.77Zm1.25,6.39a3.86,3.86,0,0,1-.52-4,.85.85,0,0,1,.27-.35.57.57,0,0,1,.64.08,1.25,1.25,0,0,1,.36.59,4,4,0,0,1-.72,3.61Zm3.42,3.56a4,4,0,0,1-2.88-2.3l-.05-.06a3.85,3.85,0,0,1,3.8,1.38.74.74,0,0,1,.18.39.57.57,0,0,1-.36.54A1.25,1.25,0,0,1,273.79,320.72Zm.95,6.59a3.83,3.83,0,0,1,.68-4,.78.78,0,0,1,.36-.26.58.58,0,0,1,.59.27,1.26,1.26,0,0,1,.18.66,4,4,0,0,1-1.76,3.25Zm.12,2.1a3.84,3.84,0,0,1,3.23,2.43.72.72,0,0,1,.06.43.55.55,0,0,1-.5.41,1.22,1.22,0,0,1-.67-.15,4,4,0,0,1-2.08-3Zm1.58,11.32a3.83,3.83,0,0,1,.26-4,.77.77,0,0,1,.33-.29.58.58,0,0,1,.62.2,1.26,1.26,0,0,1,.24.65,3.94,3.94,0,0,1-1.41,3.4Zm.29,1.34,0-.06a3.84,3.84,0,0,1,3.46,2.08.92.92,0,0,1,.11.43.58.58,0,0,1-.47.45,1.22,1.22,0,0,1-.68-.08A4,4,0,0,1,276.73,342.07Zm2.89,9.15a3.84,3.84,0,0,1-.33-4,.75.75,0,0,1,.28-.33.55.55,0,0,1,.64.11,1.2,1.2,0,0,1,.34.6,4,4,0,0,1-.9,3.57Zm.48,1.28-.05-.06a3.84,3.84,0,0,1,3.72,1.56.71.71,0,0,1,.17.41.58.58,0,0,1-.39.52,1.34,1.34,0,0,1-.69,0A4,4,0,0,1,280.1,352.5Zm5.47,7.58a3.94,3.94,0,0,1-3.05-2.06,1.33,1.33,0,0,1-.16-.67.58.58,0,0,1,.41-.51.81.81,0,0,1,.43.06,3.82,3.82,0,0,1,2.44,3.22Zm.34-2.83a1.12,1.12,0,0,1,1.09-1.12,1.1,1.1,0,0,1,1.11,1.09,1.1,1.1,0,0,1-2.2,0Zm5.26,1.93a.76.76,0,0,1-.25.36,3.84,3.84,0,0,1-4,.69l.06-.05a3.94,3.94,0,0,1,3.24-1.76,1.25,1.25,0,0,1,.66.17A.56.56,0,0,1,291.17,359.18Zm5-1.79a4,4,0,0,1-3.63.66,1.19,1.19,0,0,1-.58-.37.56.56,0,0,1-.07-.64.73.73,0,0,1,.36-.26,3.82,3.82,0,0,1,4,.58Zm1.07-.86v-.07a3.93,3.93,0,0,1,1.08-3.53,1.28,1.28,0,0,1,.59-.35.59.59,0,0,1,.61.24.93.93,0,0,1,.07.44A3.84,3.84,0,0,1,297.21,356.53Zm5.33-8.26A4,4,0,0,1,300,351a1.25,1.25,0,0,1-.69.05.6.6,0,0,1-.44-.49.84.84,0,0,1,.14-.42,3.82,3.82,0,0,1,3.56-1.89Zm.36-1.32,0-.07a3.93,3.93,0,0,1-1.23-3.48,1.28,1.28,0,0,1,.27-.63.59.59,0,0,1,.63-.17.86.86,0,0,1,.32.31A3.82,3.82,0,0,1,302.9,347Zm2-9.37a4,4,0,0,1-2.11,3,1.22,1.22,0,0,1-.67.15.57.57,0,0,1-.5-.41.83.83,0,0,1,.06-.44,3.83,3.83,0,0,1,3.26-2.39Zm.16-1.37,0-.06a4,4,0,0,1-1.73-3.26,1.4,1.4,0,0,1,.18-.67.59.59,0,0,1,.6-.26.86.86,0,0,1,.36.27A3.83,3.83,0,0,1,305.09,336.21Zm.82-9.71a4,4,0,0,1-1.78,3.23,1.39,1.39,0,0,1-.65.21.59.59,0,0,1-.55-.36.94.94,0,0,1,0-.44,3.85,3.85,0,0,1,3-2.72Zm0-1.44a3.94,3.94,0,0,1-2.05-3.06,1.31,1.31,0,0,1,.11-.68.58.58,0,0,1,.57-.32.81.81,0,0,1,.38.22,3.85,3.85,0,0,1,1,3.91Z" style="fill:#AE883D"></path><path d="M320,223.13l-.32.26a7.3,7.3,0,0,0-.89.83,7.38,7.38,0,0,0-1.89,4.18c-.64,4.07-1.55,9.94-2.69,17.25-2.34,14.65-5.58,35-9.25,58l0,.23-.23,0-12.08-.61c-13.06-.6-25.51-1.06-36.83-1.08-2.83,0-5.59,0-8.26.15l-2,.11c-.66,0-1.31.13-1.95.19a6.82,6.82,0,0,0-3.5,1.19,22.67,22.67,0,0,0-5.08,5.08,60.64,60.64,0,0,0-3.72,5.57,103.81,103.81,0,0,0-8.49,18.36,39.26,39.26,0,0,0-1.5,5.29,9.86,9.86,0,0,0-.2,1.41c0,.32,0,.49,0,.49s0-.16,0-.49a11.54,11.54,0,0,1,.15-1.43,36,36,0,0,1,1.42-5.34c.74-2.28,1.78-5,3.14-8.15A99.44,99.44,0,0,1,231,314.32a59.21,59.21,0,0,1,3.72-5.62,22.91,22.91,0,0,1,5.16-5.2l.84-.49c.29-.15.6-.26.9-.4s.65-.17,1-.26.65-.08,1-.12c.66-.07,1.31-.16,2-.2l2-.11c2.69-.14,5.45-.18,8.29-.18,11.34,0,23.79.44,36.85,1l12.08.62-.27.21c3.74-23,7-43.37,9.41-58,1.21-7.29,2.18-13.15,2.85-17.22a7.45,7.45,0,0,1,2-4.22A5.3,5.3,0,0,1,320,223.13Z" style="fill:#263238"></path><path d="M205.61,254.73h0c3.92-4,26.37-25.6,30-28.3,2.14-1.6,5.55-5.52,8.25-8.81a5,5,0,0,1,8,.32c3.73,5.38,9.16,13.48,11.64,18.45,4,8,20.25,36.2,20.25,36.2s12.42,14.64,16,22.4a3.76,3.76,0,0,1-1.87,5l-7.2,3.24s-45.78-3.95-50.75.41-9.8,10.31-14.75,22.39l-1.49,4.11s-28-21.18-28.95-22.58c-2.39-3.65-15.23-20-14.38-21.77C184.67,276.91,198,262.35,205.61,254.73Z" style="fill:#AE883D"></path><path d="M205.56,254.77s26-25.35,30-28.34c2.14-1.6,5.55-5.52,8.25-8.81a5,5,0,0,1,8,.32c3.73,5.38,9.16,13.48,11.64,18.45,4,8,20.25,36.2,20.25,36.2s12.44,14.67,16,22.42a3.75,3.75,0,0,1-1.86,5l-7.22,3.24s-45.78-3.95-50.75.41-9.8,10.31-14.75,22.39l-1.49,4.11s-27.95-21.24-28.95-22.58c-6.1-8.16-15-20-14.38-21.77C182.75,278.24,205.56,254.77,205.56,254.77Z" style="opacity:0.30000000000000004"></path><path d="M256.86,251.46s-.67.4-1.89,1.12a36.68,36.68,0,0,0-4.86,3.45,45.3,45.3,0,0,0-11.74,15.61,72.79,72.79,0,0,0-5.53,18.87c-.41,2.5-.67,4.53-.84,5.93q-.12,1-.21,1.62a2.18,2.18,0,0,1-.1.56,2,2,0,0,1,0-.57c0-.37.05-.92.11-1.63.11-1.41.31-3.45.67-6a69.24,69.24,0,0,1,5.43-19,44.13,44.13,0,0,1,12-15.67,32.39,32.39,0,0,1,5-3.35c.62-.36,1.13-.56,1.46-.73A1.81,1.81,0,0,1,256.86,251.46Z" style="fill:#263238"></path><path d="M239.43,231.15a2.1,2.1,0,0,1-.17.56l-.6,1.55c-.26.67-.58,1.49-.92,2.46s-.77,2.05-1.15,3.28c-.84,2.43-1.71,5.38-2.56,8.67s-1.59,7-2.2,10.85-.93,7.62-1.13,11-.22,6.47-.15,9.05c0,1.29.09,2.45.13,3.47s.09,1.9.15,2.62.07,1.22.1,1.66a2.14,2.14,0,0,1,0,.58,2.61,2.61,0,0,1-.11-.57c0-.43-.11-1-.2-1.65s-.17-1.6-.23-2.62-.18-2.19-.21-3.48c-.11-2.58-.11-5.67,0-9.08s.51-7.16,1.1-11.07,1.4-7.58,2.24-10.89,1.8-6.24,2.68-8.67c.41-1.23.86-2.31,1.23-3.27s.71-1.77,1-2.43.5-1.11.68-1.51A2.1,2.1,0,0,1,239.43,231.15Z" style="fill:#263238"></path><path d="M281.75,303.07A.7.7,0,0,1,282,303l.67-.27c.59-.24,1.48-.57,2.56-1.1a12,12,0,0,0,3.55-2.51,6.42,6.42,0,0,0,1.85-5.2c-.29-2.12-1.7-4.11-3-6.27l-4.31-6.91c-3-4.87-6.37-10.22-9.86-15.84-7-11.25-13.24-21.49-17.89-28.81-2.33-3.66-4.26-6.59-5.61-8.61l-1.56-2.32-.39-.6a.75.75,0,0,1-.12-.22,1.23,1.23,0,0,1,.16.18l.44.58,1.64,2.27c1.4,2,3.38,4.88,5.75,8.52,4.73,7.28,11,17.49,18,28.73,3.48,5.63,6.8,11,9.83,15.87l4.27,6.94c1.31,2.15,2.75,4.19,3,6.44a5.9,5.9,0,0,1-.44,3.12,8,8,0,0,1-1.56,2.33,11.69,11.69,0,0,1-3.67,2.49,24.26,24.26,0,0,1-2.61,1l-.7.23Z" style="fill:#263238"></path><path d="M231.65,256.19c0,.05-.38-.17-1.09-.29a5.4,5.4,0,0,0-2.95.45,12.19,12.19,0,0,0-1.86,1c-.63.41-1.29.92-2,1.4a12.07,12.07,0,0,1-2.44,1.33,5.31,5.31,0,0,1-3,.27c-2.09-.5-3.5-2-4.73-3.19a9.7,9.7,0,0,0-3.65-2.59,4.22,4.22,0,0,0-2.94.06,7.26,7.26,0,0,0-.95.58s.05-.09.17-.24a2.71,2.71,0,0,1,.69-.52,4.27,4.27,0,0,1,3.14-.23,9.59,9.59,0,0,1,3.87,2.59c1.25,1.17,2.63,2.59,4.52,3s3.67-.57,5.07-1.49c.73-.46,1.39-1,2.06-1.36a11.86,11.86,0,0,1,1.95-1,5.3,5.3,0,0,1,3.13-.31,2.51,2.51,0,0,1,.8.32C231.57,256.12,231.66,256.18,231.65,256.19Z" style="fill:#fff"></path><path d="M248.73,256.25c-.08.05-.56-.83-1.61-2a13.77,13.77,0,0,0-5-3.53,13.59,13.59,0,0,0-6-1c-1.57.09-2.53.38-2.55.29a6.7,6.7,0,0,1,2.52-.66A12.6,12.6,0,0,1,247.4,254,6.87,6.87,0,0,1,248.73,256.25Z" style="fill:#fff"></path><path d="M290.25,297.9a5.77,5.77,0,0,0-2.23-1.14,11,11,0,0,0-2.95-.28,19.42,19.42,0,0,1-4-.2,8.6,8.6,0,0,1-4.22-2.42,13.57,13.57,0,0,1-3-4.71c-1.48-3.68-1.64-8.07-3.1-12.26a13.14,13.14,0,0,0-3.34-5.42,11.64,11.64,0,0,0-5.3-2.61,52.16,52.16,0,0,0-5.43-.84,26.58,26.58,0,0,1-4.75-1,9.73,9.73,0,0,1-5.56-4.12,5.7,5.7,0,0,1-.7-1.78,3.43,3.43,0,0,1-.08-.49c0-.11,0-.16,0-.17a8.21,8.21,0,0,0,.95,2.34,9.75,9.75,0,0,0,5.5,3.87,26.63,26.63,0,0,0,4.69.88,49.63,49.63,0,0,1,5.49.81,12,12,0,0,1,5.54,2.7,13.57,13.57,0,0,1,3.48,5.62,41.89,41.89,0,0,1,1.55,6.4,35.1,35.1,0,0,0,1.51,5.86c1.33,3.58,4,6.31,6.84,6.94a19.53,19.53,0,0,0,3.92.27,10.61,10.61,0,0,1,3,.38,4.87,4.87,0,0,1,1.71.86,3.42,3.42,0,0,1,.37.34C290.22,297.85,290.26,297.89,290.25,297.9Z" style="fill:#fff"></path><path d="M237,235c0,.08-.72.23-1.83.67s-2.58,1.21-4.34,1.84a8,8,0,0,1-4.75.34,2.91,2.91,0,0,1-1.7-1,11.51,11.51,0,0,0,1.79.65,8.59,8.59,0,0,0,4.49-.47c1.7-.61,3.22-1.35,4.39-1.69A4.52,4.52,0,0,1,237,235Z" style="fill:#fff"></path><path d="M258.26,242c-.08.06-.83-.95-2.28-2.33a24,24,0,0,0-2.74-2.21,25.3,25.3,0,0,0-3.74-2.12,25.81,25.81,0,0,0-4.06-1.4,24.15,24.15,0,0,0-3.47-.57c-2-.18-3.26-.07-3.26-.17a3.35,3.35,0,0,1,.87-.15A15.9,15.9,0,0,1,242,233a19.83,19.83,0,0,1,3.56.48,21.67,21.67,0,0,1,8,3.59,20.34,20.34,0,0,1,2.71,2.34,14.73,14.73,0,0,1,1.56,1.84A3,3,0,0,1,258.26,242Z" style="fill:#fff"></path><path d="M274.1,266a8.7,8.7,0,0,0-2.08-2.21,20.47,20.47,0,0,0-2.86-1.67,14.61,14.61,0,0,1-3.5-2.26,9.82,9.82,0,0,1-2.35-3.46,10.2,10.2,0,0,1-.7-3.34,8.39,8.39,0,0,1,.23-2.28,2.2,2.2,0,0,1,.29-.79A18.79,18.79,0,0,0,263,253a10,10,0,0,0,3,6.44,15.68,15.68,0,0,0,3.37,2.22,17.62,17.62,0,0,1,2.87,1.8,6.74,6.74,0,0,1,1.53,1.72C274.05,265.64,274.13,265.93,274.1,266Z" style="fill:#fff"></path><path d="M254.72,222.42a46.29,46.29,0,0,0-7.54-.68,48.48,48.48,0,0,0-7.5,1.07,7.2,7.2,0,0,1,2.1-.8,22.76,22.76,0,0,1,10.8-.28A7.18,7.18,0,0,1,254.72,222.42Z" style="fill:#fff"></path><path d="M229.59,279s-.65.06-1.8.22a46.58,46.58,0,0,0-4.74.94,43.42,43.42,0,0,1-7.2,1.35,16.22,16.22,0,0,1-4.47-.3,18.18,18.18,0,0,1-4.23-1.51c-2.63-1.3-4.64-2.86-6.72-4.05a17.85,17.85,0,0,0-6.24-2.36,13.29,13.29,0,0,0-4.81.07c-1.09.25-1.61.53-1.65.49s.1-.09.34-.22a6.75,6.75,0,0,1,1.2-.46,12.94,12.94,0,0,1,5-.24,18.51,18.51,0,0,1,6.59,2.35c2.16,1.21,4.18,2.75,6.72,4a17.22,17.22,0,0,0,4,1.44,15.17,15.17,0,0,0,4.17.31,46.9,46.9,0,0,0,7.07-1.21,34.73,34.73,0,0,1,4.88-.8,12.37,12.37,0,0,1,1.37-.05A1.47,1.47,0,0,1,229.59,279Z" style="fill:#fff"></path><path d="M236.23,274.52a24.65,24.65,0,0,0-2.92-1.21,23.62,23.62,0,0,0-3.15-.34,5.57,5.57,0,0,1,6.07,1.55Z" style="fill:#fff"></path><path d="M250.44,301.71a28.44,28.44,0,0,0-.65-4,17.32,17.32,0,0,0-5-8.29c-2.76-2.72-6.5-3.33-8.35-5.32a5.07,5.07,0,0,1-1.48-2.67,3.13,3.13,0,0,1,0-.84c0-.19,0-.28.07-.28s0,.4.16,1.08a5.22,5.22,0,0,0,1.53,2.45,13.58,13.58,0,0,0,3.79,2.21,16.59,16.59,0,0,1,9.67,11.57,14.22,14.22,0,0,1,.37,3A3.9,3.9,0,0,1,250.44,301.71Z" style="fill:#fff"></path><path d="M232.39,310.72a11.13,11.13,0,0,1-1.14-1.44,24.51,24.51,0,0,0-3.45-3.72,16.55,16.55,0,0,0-7.39-3.65,18.44,18.44,0,0,0-5.29-.21c-1.86.15-3.77.46-5.79.62a34.1,34.1,0,0,1-11.3-1,29.73,29.73,0,0,1-8-3.41,20.27,20.27,0,0,1-4.19-3.39,9.16,9.16,0,0,1-.89-1.06c-.19-.24-.27-.38-.25-.39a27.33,27.33,0,0,0,5.65,4.55,30.39,30.39,0,0,0,7.93,3.25,34.29,34.29,0,0,0,11,1c2-.16,3.89-.47,5.8-.61a19.16,19.16,0,0,1,5.54.25,16.65,16.65,0,0,1,7.6,3.87,20.63,20.63,0,0,1,3.31,3.87c.32.48.55.86.7,1.12A1.58,1.58,0,0,1,232.39,310.72Z" style="fill:#fff"></path><path d="M225.49,322.69a2.94,2.94,0,0,1-.92,0c-.59-.06-1.45-.19-2.5-.38A58.83,58.83,0,0,1,206.33,317c-1-.48-1.7-.9-2.21-1.21a3.07,3.07,0,0,1-.77-.52,31.68,31.68,0,0,1,3.14,1.4c1.93.87,4.63,2,7.69,3a81.67,81.67,0,0,0,8,2.2A33.09,33.09,0,0,1,225.49,322.69Z" style="fill:#fff"></path></g><g id="freepik--Character--inject-142"><path d="M180.57,185c-3.86-3.43-4.06-9.29-3.95-14.45s0-11-3.84-14.49L162,157.86l-7.33,38.93a33.7,33.7,0,0,0,6.65,7,11.44,11.44,0,0,0,9.12,2.22c3.13-.77,5.8-3.77,5.47-7a3.85,3.85,0,0,0,3-6.71c2.11,0,4.82-.57,5.15-2.65S182.09,186.3,180.57,185Z" style="fill:#e0e0e0"></path><path d="M134.76,161.89a9.07,9.07,0,0,0-3.31-6.81,8.25,8.25,0,0,0-5.7-1.28,11.33,11.33,0,0,0-8.29,5.35c-1.75,2.92-1.42,6.64-1.42,11l2.47,1.49c2.75,3.13,7.92,3.42,11.38,1.1S135.05,166,134.76,161.89Z" style="fill:#e0e0e0"></path><path d="M131.76,196.05l-.6-29.64-15,1.3a56.78,56.78,0,0,1-1.49,11.1,8.12,8.12,0,0,1-2.23,4.52c-1.71,1.46-4.32,1.44-6,2.9a4.38,4.38,0,0,0,2.51,7.7,4.35,4.35,0,0,0,7,4.86c-.95,1.76.36,4.14,2.28,4.7a5.5,5.5,0,0,0,5.38-1.8c-.49,1.85,1.47,3.71,3.39,3.57a5.16,5.16,0,0,0,4.14-3.53A15.46,15.46,0,0,0,131.76,196.05Z" style="fill:#e0e0e0"></path><path d="M177.55,147.73c-.06-4.66-3.92-8.6-8.31-10.13s-9.21-1.11-13.81-.39c-3.24.52-6.62,1.26-9.05,3.46a9.89,9.89,0,0,1-2.62,2.14,8.9,8.9,0,0,1-3.68.24,11.52,11.52,0,0,0-11.41,14.22l40.81,2.14c.63,0,5.63-3.36,7.3-5.61C178,152.16,177.58,149.77,177.55,147.73Z" style="fill:#e0e0e0"></path><path d="M126.61,161.13c.25-.73,2.42-5.71,3.2-5.65.56,0-.73,4.65-.44,5.13,2.81,4.51,3.7,10,3.43,15.34a69.51,69.51,0,0,1-2.64,15.25" style="fill:#e0e0e0"></path><path d="M130.16,191.2a89.47,89.47,0,0,1-4.32-14.8" style="fill:#e0e0e0"></path><path d="M145.31,233.67a14.67,14.67,0,0,1-14.79-14.23l-1.45-48c-.79-12.88,6-24.08,18.94-24.53l1.19,0a23.08,23.08,0,0,1,22.49,21.77c.63,11.17,1.18,23.52,1,29.5-.46,12.38-12.89,14-12.89,14s0,2.87.09,6.51a14.69,14.69,0,0,1-14.55,15Z" style="fill:#ffc4af"></path><path d="M159.78,212.35a29.94,29.94,0,0,1-16-5.15s3.65,9.1,16,8.29Z" style="fill:#df947f"></path><path d="M151.1,192.34a2.67,2.67,0,1,1,2.94,4.3,3.4,3.4,0,0,1-2.14.06,2.56,2.56,0,0,1-1.39-.86,2.38,2.38,0,0,1-.21-2.27,3.58,3.58,0,0,1,1.17-1.55" style="fill:#df947f"></path><path d="M168.06,177.7a1.77,1.77,0,0,1-1.75,1.74,1.69,1.69,0,0,1-1.78-1.64,1.77,1.77,0,0,1,1.75-1.74A1.69,1.69,0,0,1,168.06,177.7Z" style="fill:#263238"></path><path d="M168.94,174.73c-.23.22-1.54-.8-3.45-.84s-3.32.88-3.52.64.14-.52.75-.95a4.86,4.86,0,0,1,2.83-.79,4.6,4.6,0,0,1,2.73,1C168.86,174.21,169.05,174.63,168.94,174.73Z" style="fill:#263238"></path><path d="M150.47,178a1.78,1.78,0,0,1-1.75,1.74,1.69,1.69,0,0,1-1.79-1.64,1.77,1.77,0,0,1,1.75-1.74A1.7,1.7,0,0,1,150.47,178Z" style="fill:#263238"></path><path d="M150.62,174.74c-.22.23-1.54-.79-3.44-.84s-3.32.88-3.52.64.13-.51.75-.94a4.85,4.85,0,0,1,2.82-.8,4.7,4.7,0,0,1,2.74,1C150.54,174.22,150.73,174.64,150.62,174.74Z" style="fill:#263238"></path><path d="M156.74,189a12,12,0,0,1,3.1-.48c.49,0,.95-.13,1-.46a2.53,2.53,0,0,0-.29-1.45l-1.35-3.73c-1.86-5.32-3.2-9.68-3-9.76s1.9,4.18,3.77,9.5l1.29,3.75a2.84,2.84,0,0,1,.21,1.91,1.26,1.26,0,0,1-.82.7,3.74,3.74,0,0,1-.83.09A12.13,12.13,0,0,1,156.74,189Z" style="fill:#263238"></path><path d="M151.11,190.21c.31,0,.26,2.06,2,3.56s3.94,1.34,4,1.63c0,.13-.5.39-1.43.39a5.17,5.17,0,0,1-3.3-1.24,4.49,4.49,0,0,1-1.54-3C150.72,190.7,151,190.19,151.11,190.21Z" style="fill:#263238"></path><path d="M150.84,167.31c-.2.51-2.09.22-4.33.43s-4.06.78-4.34.31c-.13-.22.2-.7.94-1.18a7,7,0,0,1,3.23-1.05,7.21,7.21,0,0,1,3.38.48C150.53,166.65,150.93,167.06,150.84,167.31Z" style="fill:#e0e0e0"></path><path d="M168.32,169.32c-.35.43-1.65,0-3.22-.11s-2.92.22-3.22-.24c-.13-.22.09-.65.69-1.05a4.67,4.67,0,0,1,5.18.29C168.3,168.67,168.47,169.12,168.32,169.32Z" style="fill:#e0e0e0"></path><path d="M129.87,180.78c-.21-.1-8.45-2.73-8.38,5.75s8.55,6.65,8.57,6.41S129.87,180.78,129.87,180.78Z" style="fill:#ffc4af"></path><path d="M127.44,189.75s-.14.11-.39.22a1.4,1.4,0,0,1-1.1,0c-.9-.32-1.67-1.73-1.72-3.26a4.84,4.84,0,0,1,.4-2.12,1.71,1.71,0,0,1,1.1-1.14.75.75,0,0,1,.87.4c.12.24.07.41.11.42s.18-.14.11-.49a1,1,0,0,0-.34-.53,1.09,1.09,0,0,0-.81-.21,2.09,2.09,0,0,0-1.54,1.33,5,5,0,0,0-.49,2.36c.07,1.71,1,3.3,2.18,3.64a1.59,1.59,0,0,0,1.35-.23C127.43,190,127.47,189.77,127.44,189.75Z" style="fill:#df947f"></path><path d="M166.25,155.08c1.36-.78-3.1-5.33-6.5-6.8-5.13-2.22-12.93-3.52-17.6-2.11-5.62,1.7-10.27,4.59-13,9.78A33.41,33.41,0,0,0,125.67,173c.08,1.79-3.32,2.81-2.34,4.31,1.2,1.84.92,1,3,3.51.57.71,1.47,1.52,2.07,2.21,1.6,1.84,5.6,2.21,6.46.6a20.45,20.45,0,0,0,2.84-9.94c.07-2.59.12-6.53-.56-9a9.55,9.55,0,0,1-.35-2.86,8.19,8.19,0,0,1,1.34-4.45,5.29,5.29,0,0,1,.76-.79,7.62,7.62,0,0,1,7.43-1.4c4.84,1.61,8.74,4.25,14.25,1.88a7,7,0,0,0,2.38-2.14,2.45,2.45,0,0,1,3.34.06Z" style="fill:#e0e0e0"></path><path d="M138.1,157a11.69,11.69,0,0,1,9.06-1c2.52.78,4.7,2.4,7.14,3.45a16.91,16.91,0,0,0,16.7-2.18,5.86,5.86,0,0,0,2.58-4,4.53,4.53,0,0,0-1.67-3.55,10.37,10.37,0,0,0-3.57-1.88,39.47,39.47,0,0,0-18.45-1.41c-5,.7-10,2.24-13.64,5.75a4.57,4.57,0,0,0-1.18,1.62,2,2,0,0,0,.2,1.93,1.29,1.29,0,0,0,1.8.22" style="fill:#e0e0e0"></path><path d="M171.2,176.49c0,.15-.46.33-1,.52s-1,.34-1.13.21.33-.51,1-.72S171.18,176.35,171.2,176.49Z" style="fill:#df947f"></path><path d="M171.92,177.83c0,.15-.63.19-1.36.19s-1.34,0-1.36-.19.58-.35,1.36-.35S171.94,177.69,171.92,177.83Z" style="fill:#df947f"></path><path d="M142.41,177.06c0,.15-.84.18-1.86.18s-1.84,0-1.86-.19.82-.35,1.86-.35S142.43,176.91,142.41,177.06Z" style="fill:#df947f"></path><path d="M142.3,178.77c0,.15-.74.13-1.61.14s-1.58,0-1.61-.13.68-.41,1.61-.41S142.34,178.63,142.3,178.77Z" style="fill:#df947f"></path><path d="M150.13,181.54c0,.05-.24.39-.85.73a4.64,4.64,0,0,1-2.64.53,4.7,4.7,0,0,1-2.5-1c-.54-.45-.74-.83-.69-.87a5.93,5.93,0,0,0,6.68.63Z" style="fill:#df947f"></path><path d="M151,181.13c.05.13-.84.6-2.07.6s-2.12-.46-2.06-.59.95.06,2.06.05S150.94,181,151,181.13Z" style="fill:#df947f"></path><path d="M169.39,180a6.88,6.88,0,0,1-6.19.58c0-.16,1.42.08,3.11-.09S169.33,179.8,169.39,180Z" style="fill:#df947f"></path><path d="M168.47,180.6a4.76,4.76,0,0,1-5.7,1,21.25,21.25,0,0,0,2.92-.07A24.7,24.7,0,0,0,168.47,180.6Z" style="fill:#df947f"></path><path d="M164.51,165.51a7.43,7.43,0,0,1-2.14.52,28.45,28.45,0,0,1-5.31.28,27.44,27.44,0,0,1-5.26-.71,7.39,7.39,0,0,1-2.1-.69c0-.17,3.28.71,7.38.86S164.48,165.34,164.51,165.51Z" style="fill:#df947f"></path><path d="M165.8,164a26.42,26.42,0,0,1-6.87.63,26,26,0,0,1-6.86-.68c0-.16,3.08.13,6.87.14S165.78,163.87,165.8,164Z" style="fill:#df947f"></path><path d="M156.14,170.17c-.15,0-.2-.4-.21-.83s0-.8.15-.84.37.32.39.82S156.28,170.2,156.14,170.17Z" style="fill:#df947f"></path><path d="M158.75,170.5c-.05.14-.65,0-.91-.7s.06-1.2.19-1.13.13.48.32.93S158.82,170.36,158.75,170.5Z" style="fill:#df947f"></path><path d="M150.83,189.66c0,.16-.6.25-1.14.7s-.76,1-.91,1-.14-.81.57-1.38S150.86,189.52,150.83,189.66Z" style="fill:#df947f"></path><path d="M148.6,189.51c0,.15-.35.23-.59.52s-.3.6-.44.65-.17-.07-.21-.28a1,1,0,0,1,.25-.73.93.93,0,0,1,.69-.33C148.51,189.35,148.61,189.44,148.6,189.51Z" style="fill:#df947f"></path><path d="M140.56,222.66s-.25,0-.57-.28a2.64,2.64,0,0,1-.82-1.56,6.69,6.69,0,0,1,.11-2.57,5.45,5.45,0,0,0,0-2.89c-.17-.46-.52-.88-.72-1.42a2.59,2.59,0,0,1,0-1.61,2,2,0,0,0,0-1.19,5.23,5.23,0,0,0-.53-1,2,2,0,0,1-.33-1.72c.17-.43.47-.48.47-.45s-.19.15-.27.51a1.88,1.88,0,0,0,.45,1.46,4.53,4.53,0,0,1,.63,1,2.39,2.39,0,0,1,0,1.45,2.09,2.09,0,0,0,0,1.31c.16.43.5.85.73,1.41a5.71,5.71,0,0,1,0,3.18,6.87,6.87,0,0,0-.22,2.42,2.73,2.73,0,0,0,.58,1.47C140.38,222.51,140.58,222.62,140.56,222.66Z" style="fill:#df947f"></path><path d="M145.94,223.69s-.26,0-.64-.22a3.17,3.17,0,0,1-1-1.52,27.66,27.66,0,0,1-1.39-5.72,14,14,0,0,1-.05-1.7,9.83,9.83,0,0,0,0-1.51c0-.93-.94-1.25-1.53-1.79a1.64,1.64,0,0,1-.55-1,.93.93,0,0,1,.3-.79c.38-.35.7-.14.66-.12s-.27,0-.51.26a.75.75,0,0,0-.15.6,1.29,1.29,0,0,0,.51.72c.26.22.63.4,1,.69a1.91,1.91,0,0,1,.77,1.33,10.53,10.53,0,0,1,0,1.59,15.08,15.08,0,0,0,.06,1.63,39,39,0,0,0,1.21,5.65,3.41,3.41,0,0,0,.79,1.48C145.72,223.58,146,223.64,145.94,223.69Z" style="fill:#df947f"></path><path d="M148.32,141.48a1.85,1.85,0,0,1,.48-.25c.32-.16.8-.35,1.43-.59a23.64,23.64,0,0,1,5.54-1.26,24.64,24.64,0,0,1,8.41.52,17.72,17.72,0,0,1,4.69,1.77,9.32,9.32,0,0,1,3.8,3.82,9.15,9.15,0,0,1,.88,5.33,10.91,10.91,0,0,1-1.73,4.72,10.55,10.55,0,0,1-3.27,3.16,12.89,12.89,0,0,1-3.63,1.57,15.47,15.47,0,0,1-5.66.4,12.37,12.37,0,0,1-1.53-.26,2.24,2.24,0,0,1-.51-.15s.73.1,2.06.2a16.22,16.22,0,0,0,5.54-.56,12.52,12.52,0,0,0,3.49-1.58,10.25,10.25,0,0,0,3.1-3.06,10.56,10.56,0,0,0,1.62-4.51,8.38,8.38,0,0,0-4.43-8.62,17.2,17.2,0,0,0-4.54-1.74,25,25,0,0,0-8.26-.63,26.5,26.5,0,0,0-5.5,1.08C149,141.24,148.34,141.52,148.32,141.48Z" style="fill:#fff"></path><path d="M177.2,147a3.94,3.94,0,0,1,.07,2.08,9.51,9.51,0,0,1-2.2,4.52,18.48,18.48,0,0,1-3.79,3.27,7.1,7.1,0,0,1-1.79,1,8.06,8.06,0,0,1,1.56-1.34,25,25,0,0,0,3.61-3.31,10.46,10.46,0,0,0,2.23-4.24C177.18,147.76,177.1,147,177.2,147Z" style="fill:#fff"></path><path d="M145.74,148.45a29.33,29.33,0,0,0-6.66,3.17c-1.64,1.18-3.1,2.42-3.58,3.62a3.91,3.91,0,0,0-.2,2.07s-.17-.17-.26-.55a3,3,0,0,1,.1-1.66c.47-1.4,2-2.71,3.64-3.92a16.88,16.88,0,0,1,4.79-2.33A6.23,6.23,0,0,1,145.74,148.45Z" style="fill:#fff"></path><path d="M137.56,146.74c0,.06-.45.45-1.23,1.09a12.16,12.16,0,0,0-2.61,2.8,5.76,5.76,0,0,0-.89,3.6c.1,1,.45,1.51.37,1.56s-.53-.45-.75-1.5a5.53,5.53,0,0,1,.81-3.94,9.82,9.82,0,0,1,2.84-2.83A4.43,4.43,0,0,1,137.56,146.74Z" style="fill:#fff"></path><path d="M120.67,162a4,4,0,0,1,1-1.7,9.26,9.26,0,0,1,8.41-3.44,4.17,4.17,0,0,1,1.87.54c0,.08-.74-.11-1.9-.16a10.44,10.44,0,0,0-4.42.74,10.55,10.55,0,0,0-3.67,2.57C121.12,161.43,120.74,162.06,120.67,162Z" style="fill:#fff"></path><path d="M126.85,166.41a2.54,2.54,0,0,1-.39-1.49,5.65,5.65,0,0,1,4.08-5.71,2.56,2.56,0,0,1,1.53-.12,13,13,0,0,1-1.4.48,6,6,0,0,0-3.83,5.35C126.8,165.82,126.93,166.39,126.85,166.41Z" style="fill:#fff"></path><path d="M113.86,199.45a3,3,0,0,0,1.49-1.14,3.82,3.82,0,0,0,.64-2.1,13.06,13.06,0,0,0-.37-3,32.17,32.17,0,0,1-.63-7.91,14.91,14.91,0,0,1,3.49-9,10.42,10.42,0,0,1,4.18-2.89c1.55-.59,3.09-.91,4.5-1.33a10.84,10.84,0,0,0,3.72-1.74,7,7,0,0,0,2.11-2.84,13.75,13.75,0,0,0,.89-5.16,15.54,15.54,0,0,1,0-2,2.65,2.65,0,0,1,.08.5c0,.33.07.82.1,1.45a12.91,12.91,0,0,1-.75,5.3,7.25,7.25,0,0,1-2.18,3,11.21,11.21,0,0,1-3.85,1.86c-1.44.44-3,.77-4.45,1.34a10,10,0,0,0-4,2.76,14.6,14.6,0,0,0-3.4,8.7,33.15,33.15,0,0,0,.52,7.82,13,13,0,0,1,.29,3,4,4,0,0,1-.76,2.2,2.72,2.72,0,0,1-1.16.91A1.15,1.15,0,0,1,113.86,199.45Z" style="fill:#fff"></path><path d="M238.9,394.89l12.39,22.52s26.06-6.62,28.76-2.68l-41.81,27.18-20.75-34.29Z" style="fill:#AE883D"></path><g style="opacity:0.6000000000000001"><path d="M237,423.47a2,2,0,0,0,0,2.72,2,2,0,0,0,2.69,0,2.15,2.15,0,0,0,0-2.88,2,2,0,0,0-2.8.27" style="fill:#fff"></path></g><g style="opacity:0.6000000000000001"><path d="M238.24,441.91l-2.1-3.46,41.29-24.84a3.46,3.46,0,0,1,3,1.28Z" style="fill:#fff"></path></g><path d="M251.85,416.78c.12.21-.87.93-1.49,2.22s-.65,2.49-.9,2.52-.65-1.36.14-2.9S251.78,416.56,251.85,416.78Z" style="fill:#263238"></path><path d="M257.45,416c.17.17-.52,1.07-.7,2.38s.17,2.36,0,2.48-1.06-1-.8-2.61S257.33,415.75,257.45,416Z" style="fill:#263238"></path><path d="M263.21,419.8c-.16.16-1.08-.72-1.22-2.18s.55-2.51.75-2.38-.05,1.09.09,2.29S263.41,419.65,263.21,419.8Z" style="fill:#263238"></path><path d="M248.46,412c0,.24-1.11.53-2.24,1.31s-1.83,1.71-2.05,1.6.23-1.39,1.57-2.3S248.46,411.73,248.46,412Z" style="fill:#263238"></path><g style="opacity:0.30000000000000004"><polygon points="241.34 399.36 243.56 403.37 222.41 415.75 220.27 412.23 241.34 399.36"></polygon></g><path d="M245.87,407.46c.06.09-.69.71-2.15,1.27a11.26,11.26,0,0,1-2.65.66,12.12,12.12,0,0,1-1.62.08,3.16,3.16,0,0,1-.95-.12,1.05,1.05,0,0,1-.76-1.05,1.32,1.32,0,0,1,.63-1,3.15,3.15,0,0,1,.87-.37,8.76,8.76,0,0,1,4.36-.22,4.16,4.16,0,0,1,2.3,1c-.05.13-.93-.24-2.39-.39a9.76,9.76,0,0,0-2.56.07,9.34,9.34,0,0,0-1.46.35c-.52.15-.91.38-.9.65,0,.11,0,.14.19.22a2.61,2.61,0,0,0,.69.08,12.64,12.64,0,0,0,1.52,0,13.8,13.8,0,0,0,2.55-.45A18.63,18.63,0,0,1,245.87,407.46Z" style="fill:#263238"></path><path d="M245.78,407.92c-.05.08-.92-.42-1.8-1.73a7.85,7.85,0,0,1-1.11-2.52,8.31,8.31,0,0,1-.24-1.63,2.09,2.09,0,0,1,.72-1.9,1.16,1.16,0,0,1,1.26.07,3.34,3.34,0,0,1,.69.65,5.39,5.39,0,0,1,.86,1.44,5.77,5.77,0,0,1,.41,2.76,3.26,3.26,0,0,1-.95,2.32A22.9,22.9,0,0,0,246,405a5.84,5.84,0,0,0-.52-2.42,5.66,5.66,0,0,0-.78-1.21c-.34-.42-.73-.68-.88-.53a1.44,1.44,0,0,0-.33,1.15,7.89,7.89,0,0,0,.17,1.48,8.92,8.92,0,0,0,.86,2.38C245.18,407.18,245.88,407.83,245.78,407.92Z" style="fill:#263238"></path><path d="M201,438.6l-1.28,25.67s26.58,7.93,26.15,14.22l-50.12-.22.34-40.08Z" style="fill:#AE883D"></path><g style="opacity:0.6000000000000001"><path d="M184.36,461.9a2,2,0,0,0-1.44,2.3,2,2,0,0,0,2.27,1.45,2.15,2.15,0,0,0,1.52-2.45,2,2,0,0,0-2.53-1.24" style="fill:#fff"></path></g><g style="opacity:0.6000000000000001"><path d="M175.78,478.27l0-4,47.73.53s2.25,1.5,2.53,3.51Z" style="fill:#fff"></path></g><path d="M200.56,464c0,.24-1.23.33-2.44,1.1s-1.86,1.78-2.08,1.68.16-1.5,1.64-2.4S200.62,463.8,200.56,464Z" style="fill:#263238"></path><path d="M205.76,466.26c.05.24-1,.64-1.85,1.66s-1.09,2.1-1.33,2.09-.38-1.4.69-2.64S205.76,466,205.76,466.26Z" style="fill:#263238"></path><path d="M208.65,472.56c-.23.05-.55-1.17.1-2.5s1.79-1.84,1.89-1.63-.62.91-1.13,2S208.89,472.54,208.65,472.56Z" style="fill:#263238"></path><path d="M200.2,458.14c-.1.22-1.21-.13-2.59-.05s-2.46.49-2.58.28.92-1.06,2.54-1.13S200.33,458,200.2,458.14Z" style="fill:#263238"></path><g style="opacity:0.30000000000000004"><polygon points="200.16 456.78 199.87 461.89 175.93 461.26 175.95 457.13 200.16 456.78"></polygon></g><path d="M200.36,453a4.61,4.61,0,0,1-2.49,0,11.69,11.69,0,0,1-4-1.62,2.9,2.9,0,0,1-.74-.59,1.07,1.07,0,0,1-.1-1.3,1.33,1.33,0,0,1,1.08-.54,3.14,3.14,0,0,1,.93.14,8.84,8.84,0,0,1,1.55.55,9,9,0,0,1,2.28,1.55c1.14,1.08,1.52,2,1.44,2s-.66-.7-1.83-1.6a10.06,10.06,0,0,0-2.21-1.28,8.55,8.55,0,0,0-1.43-.46c-.52-.15-1-.16-1.11.07s-.06.13.05.28a2.2,2.2,0,0,0,.55.44,13.93,13.93,0,0,0,1.31.77,13.3,13.3,0,0,0,2.4,1A17.5,17.5,0,0,1,200.36,453Z" style="fill:#263238"></path><path d="M200,453.31a4.14,4.14,0,0,1-.62-2.43,7.94,7.94,0,0,1,.38-2.72,8.19,8.19,0,0,1,.65-1.51,2.06,2.06,0,0,1,1.61-1.24,1.18,1.18,0,0,1,1,.71,3.22,3.22,0,0,1,.24.92,5.89,5.89,0,0,1,0,1.68,5.79,5.79,0,0,1-1.1,2.57c-1,1.27-2,1.55-2,1.47s.77-.58,1.53-1.82a5.63,5.63,0,0,0,.83-2.33,5.37,5.37,0,0,0,0-1.44c-.07-.54-.26-1-.46-.91s-.68.38-.89.8a9.16,9.16,0,0,0-.64,1.35,8.84,8.84,0,0,0-.51,2.48C199.93,452.35,200.18,453.27,200,453.31Z" style="fill:#263238"></path><path d="M128.52,219l2-.1s6.69,11.23,15.68,11.16c12.44-.11,13.69-12.28,13.69-12.28l.65.08L181,239l2.69,59.32-2.22,7.61-32.66,12L122.2,291.38l-1.34-18.79Z" style="fill:#f5f5f5"></path><path d="M129.79,218.77s-24.9.85-29,11.49c-1.8,4.7-2.41,85.33-2.41,85.33s-3.11,6.94-2.9,21.25c.19,13.72,9.27,22.59,20.59,25.16,0,0,3-21.56,14.91-32.36,11.31-10.24,21.24-12.36,21.24-12.36l-3.86-26.34-3.34-18.09a294.53,294.53,0,0,0-12.12-45.24Z" style="fill:#AE883D"></path><path d="M179.66,221.6l19.79,87.06-18.29-4.16-5.82-44.89-15-41.87S176.53,219.85,179.66,221.6Z" style="fill:#AE883D"></path><path d="M223.27,288.85S201,246,196.78,238a38.06,38.06,0,0,0-18.88-17.1l21.38,82.73s2.17,6.81,5.08,10.76,7.48,6.23,14.76,5.81,10.59-8.31,10.8-16.57S223.27,288.85,223.27,288.85Z" style="fill:#AE883D"></path><g style="opacity:0.30000000000000004"><path d="M98.6,328.43a2.65,2.65,0,0,0,1.21,2.3,6.13,6.13,0,0,0,2.53.92c4.21.74,8.55-.06,12.61-1.37a101.28,101.28,0,0,0,13.49-5.86,205.74,205.74,0,0,0,19-10.24,125,125,0,0,1-19.54,6.19c-10,2.28-20.38,3.42-29.39,8.22"></path></g><path d="M115.84,237.37l-5.55,59.76h-1.57l25.18.5,9.12,18.3S110,332,95.88,327.57c-16.73-5.25-12-23.91-11.83-30.51,0-1.16,8.85-60.61,18-68.93C102,228.13,114.55,232.87,115.84,237.37Z" style="fill:#AE883D"></path><path d="M190,257.62a20.14,20.14,0,0,1-1.23-2.9c-.72-1.81-1.71-4.31-2.88-7s-2.27-5.18-3.08-7a20.88,20.88,0,0,1-1.24-2.9,17.93,17.93,0,0,1,1.57,2.74c.9,1.73,2.06,4.17,3.23,6.91s2.11,5.26,2.74,7.11A16.78,16.78,0,0,1,190,257.62Z" style="fill:#263238"></path><path d="M132.85,262s-.13-.67-.43-1.71a16.33,16.33,0,0,0-4.28-7.23c-.78-.76-1.32-1.17-1.3-1.2a2.06,2.06,0,0,1,.4.26,11,11,0,0,1,1,.83,15,15,0,0,1,2.69,3.34,15.17,15.17,0,0,1,1.63,4,10.2,10.2,0,0,1,.25,1.27A1.74,1.74,0,0,1,132.85,262Z" style="fill:#fff"></path><path d="M129.85,254.78a1.1,1.1,0,0,1-.38,0,6.51,6.51,0,0,1-1,0,9.91,9.91,0,0,1-3.3-.89l-.33-.15.35,0h0a7.89,7.89,0,0,1,3.39.51,8,8,0,0,1,1,.39,1.36,1.36,0,0,1,.34.18s-.51-.18-1.35-.43a8.48,8.48,0,0,0-3.31-.44h0l0-.2a11.19,11.19,0,0,0,3.24.94C129.31,254.76,129.85,254.75,129.85,254.78Z" style="fill:#fff"></path><path d="M131.25,256.45a8.42,8.42,0,0,1,0-1.44,7.76,7.76,0,0,0-.54-3.36h.2v0a7.78,7.78,0,0,0,0,3.41,14,14,0,0,0,.39,1.38,1,1,0,0,1-.19-.34,5.45,5.45,0,0,1-.35-1,7.36,7.36,0,0,1-.05-3.5v0l.07-.27.12.25a7.3,7.3,0,0,1,.49,3.45c0,.35,0,.7,0,1.06A1.23,1.23,0,0,1,131.25,256.45Z" style="fill:#fff"></path><path d="M132.06,258.6s-.08,0-.25.09a3.14,3.14,0,0,1-.74.1,3.45,3.45,0,0,1-2.29-.85l0,0-.24-.19h.31a6.83,6.83,0,0,1,2.37.43,2.68,2.68,0,0,1,.88.45,10.09,10.09,0,0,0-3.26-.67l.07-.18,0,0a3.55,3.55,0,0,0,2.16.86C131.68,258.66,132.06,258.56,132.06,258.6Z" style="fill:#fff"></path><path d="M191.64,244.06s-.14-.66-.43-1.71a16.48,16.48,0,0,0-4.28-7.23c-.78-.76-1.32-1.17-1.3-1.2a1.9,1.9,0,0,1,.4.27,10.67,10.67,0,0,1,1,.83,14.87,14.87,0,0,1,4.32,7.29,10,10,0,0,1,.25,1.28A1.67,1.67,0,0,1,191.64,244.06Z" style="fill:#fff"></path><path d="M188.64,236.89a1.52,1.52,0,0,1-.38,0,8,8,0,0,1-1,0,10.27,10.27,0,0,1-3.31-.89l-.32-.16.35,0h0a7.78,7.78,0,0,1,3.39.5c.41.15.74.29,1,.39a1.09,1.09,0,0,1,.34.19s-.51-.19-1.35-.44A8.48,8.48,0,0,0,184,236h0l0-.19a11.13,11.13,0,0,0,3.24.93C188.09,236.86,188.64,236.85,188.64,236.89Z" style="fill:#fff"></path><path d="M190,238.55a9,9,0,0,1,0-1.44,7.7,7.7,0,0,0-.53-3.35l.19,0v0a7.77,7.77,0,0,0,0,3.41,12.17,12.17,0,0,0,.39,1.38,1.14,1.14,0,0,1-.2-.33,6.65,6.65,0,0,1-.34-1,7.36,7.36,0,0,1-.05-3.5v0l.08-.27.12.26a7.29,7.29,0,0,1,.49,3.45q0,.51-.06,1A1.42,1.42,0,0,1,190,238.55Z" style="fill:#fff"></path><path d="M190.85,240.7s-.09.05-.26.1a3.65,3.65,0,0,1-.73.1,3.52,3.52,0,0,1-2.29-.86l0,0-.24-.19h.3a6.87,6.87,0,0,1,2.38.42,3,3,0,0,1,.88.45,10.17,10.17,0,0,0-3.26-.67l.07-.18,0,0a3.63,3.63,0,0,0,2.16.87C190.47,240.77,190.85,240.67,190.85,240.7Z" style="fill:#fff"></path><path d="M175.62,226s-.32.6-.76,1.6a16.24,16.24,0,0,0-1.31,8.29c.11,1.09.27,1.75.23,1.76a2,2,0,0,1-.14-.46,12,12,0,0,1-.24-1.28,15.12,15.12,0,0,1,.06-4.28,14.77,14.77,0,0,1,1.27-4.09,9.49,9.49,0,0,1,.62-1.14A2.88,2.88,0,0,1,175.62,226Z" style="fill:#fff"></path><path d="M173.36,233.49a1.37,1.37,0,0,1,.31.21,6.27,6.27,0,0,1,.78.68,10.09,10.09,0,0,1,2,2.8l.15.32-.29-.19h0a7.83,7.83,0,0,1-2.29-2.55c-.23-.38-.39-.7-.5-.92s-.15-.35-.13-.35.27.46.76,1.19a8.41,8.41,0,0,0,2.26,2.45h0l-.15.14a11.12,11.12,0,0,0-1.89-2.79C173.76,233.85,173.33,233.51,173.36,233.49Z" style="fill:#fff"></path><path d="M173.34,231.31a9,9,0,0,1-.88,1.13,7.76,7.76,0,0,0-1.74,2.93l-.15-.11h0a7.87,7.87,0,0,0,2.18-2.63c.43-.78.54-1.32.58-1.31a1.09,1.09,0,0,1-.07.38,5.07,5.07,0,0,1-.38,1,7.24,7.24,0,0,1-2.19,2.73h0l-.23.16.07-.27a7.45,7.45,0,0,1,1.82-3l.72-.77C173.23,231.39,173.33,231.3,173.34,231.31Z" style="fill:#fff"></path><path d="M174.08,229.13a.76.76,0,0,1,.26.09,3.3,3.3,0,0,1,1.85,2.51v.06l.07.29-.24-.19a6.93,6.93,0,0,1-1.55-1.84,3.25,3.25,0,0,1-.4-.92,10.2,10.2,0,0,0,2.09,2.6l-.17.1v-.05a3.6,3.6,0,0,0-1.11-2.05C174.42,229.33,174.07,229.17,174.08,229.13Z" style="fill:#fff"></path><path d="M124.57,221.44s-.35.59-.82,1.57a16.37,16.37,0,0,0-1.35,4,16.85,16.85,0,0,0-.28,4.23c.07,1.09.2,1.75.17,1.76a1.59,1.59,0,0,1-.12-.46,9.89,9.89,0,0,1-.19-1.29,14.78,14.78,0,0,1,.21-4.28,15,15,0,0,1,1.43-4,10.79,10.79,0,0,1,.66-1.12A1.87,1.87,0,0,1,124.57,221.44Z" style="fill:#fff"></path><path d="M122,228.8a1.08,1.08,0,0,1,.31.22,7.2,7.2,0,0,1,.76.71A10.32,10.32,0,0,1,125,232.6l.14.33-.3-.2h0a7.84,7.84,0,0,1-2.19-2.64c-.21-.39-.37-.71-.46-.93a1.46,1.46,0,0,1-.13-.36s.26.47.72,1.21a8.27,8.27,0,0,0,2.17,2.54h0l-.15.13a11.33,11.33,0,0,0-1.78-2.85C122.41,229.17,122,228.82,122,228.8Z" style="fill:#fff"></path><path d="M122.09,226.62a9,9,0,0,1-.93,1.1,7.94,7.94,0,0,0-1.84,2.86l-.15-.12h0a7.78,7.78,0,0,0,2.27-2.54,13.76,13.76,0,0,0,.63-1.29,1.34,1.34,0,0,1-.08.38,5.67,5.67,0,0,1-.42,1,7.37,7.37,0,0,1-2.3,2.65h0l-.23.15.08-.27a7.36,7.36,0,0,1,1.93-2.9l.75-.75A1.49,1.49,0,0,1,122.09,226.62Z" style="fill:#fff"></path><path d="M122.92,224.47a.75.75,0,0,1,.25.1,4.53,4.53,0,0,1,.62.42,3.55,3.55,0,0,1,1.13,2.16v.06l0,.29-.22-.2a6.79,6.79,0,0,1-1.48-1.9,2.54,2.54,0,0,1-.36-.93,9.42,9.42,0,0,0,2,2.67l-.17.1v-.05a3.62,3.62,0,0,0-1-2.09C123.24,224.68,122.9,224.51,122.92,224.47Z" style="fill:#fff"></path><path d="M198.32,246.58s-.34.59-.82,1.57a17.13,17.13,0,0,0-1.35,4,16.35,16.35,0,0,0-.27,4.23c.07,1.09.2,1.75.16,1.76a2.13,2.13,0,0,1-.12-.46,9.89,9.89,0,0,1-.19-1.29,15.2,15.2,0,0,1,.22-4.28,15,15,0,0,1,1.42-4c.26-.48.49-.86.66-1.11A3.25,3.25,0,0,1,198.32,246.58Z" style="fill:#fff"></path><path d="M195.78,253.94a1.27,1.27,0,0,1,.31.22,7.29,7.29,0,0,1,.75.71,10.1,10.1,0,0,1,1.87,2.87l.14.33-.29-.2h0a8,8,0,0,1-2.19-2.64c-.21-.39-.36-.71-.46-.93s-.14-.36-.12-.36.26.47.71,1.21a8.41,8.41,0,0,0,2.17,2.54h0l-.15.13a11.05,11.05,0,0,0-1.79-2.85C196.16,254.31,195.75,254,195.78,253.94Z" style="fill:#fff"></path><path d="M195.84,251.76a8.29,8.29,0,0,1-.92,1.1,7.69,7.69,0,0,0-1.84,2.86l-.16-.12h0a7.78,7.78,0,0,0,2.27-2.54,11.19,11.19,0,0,0,.63-1.29,1,1,0,0,1-.08.38,5,5,0,0,1-.42,1,7.23,7.23,0,0,1-2.29,2.65h0l-.24.15.09-.27a7.36,7.36,0,0,1,1.93-2.9l.74-.74C195.73,251.84,195.83,251.75,195.84,251.76Z" style="fill:#fff"></path><path d="M196.67,249.61a.88.88,0,0,1,.25.1,3.53,3.53,0,0,1,.62.43,3.45,3.45,0,0,1,1.14,2.15v.06l.05.29-.23-.2a6.79,6.79,0,0,1-1.48-1.9,3.1,3.1,0,0,1-.36-.93,10,10,0,0,0,2,2.68l-.17.09v0a3.56,3.56,0,0,0-1-2.09C197,249.82,196.65,249.65,196.67,249.61Z" style="fill:#fff"></path><path d="M221.37,305.67s-.34.58-.82,1.56a16.68,16.68,0,0,0-1.35,4,16.87,16.87,0,0,0-.28,4.23c.07,1.09.21,1.75.17,1.76a1.59,1.59,0,0,1-.12-.46,9.89,9.89,0,0,1-.19-1.29,14.84,14.84,0,0,1,.22-4.28,14.69,14.69,0,0,1,1.42-4,9.52,9.52,0,0,1,.66-1.11A1.59,1.59,0,0,1,221.37,305.67Z" style="fill:#fff"></path><path d="M218.82,313a1.08,1.08,0,0,1,.31.22,7.2,7.2,0,0,1,.76.71,10.1,10.1,0,0,1,1.87,2.87l.14.33-.29-.2h0a7.75,7.75,0,0,1-2.19-2.64,9.61,9.61,0,0,1-.46-.93,1.46,1.46,0,0,1-.13-.36s.26.47.72,1.22a8.36,8.36,0,0,0,2.17,2.53h0l-.15.13a11.52,11.52,0,0,0-1.79-2.85C219.21,313.4,218.8,313,218.82,313Z" style="fill:#fff"></path><path d="M218.89,310.84a9,9,0,0,1-.93,1.1,7.94,7.94,0,0,0-1.84,2.86l-.15-.12h0a7.78,7.78,0,0,0,2.27-2.54,13.76,13.76,0,0,0,.63-1.29,1.34,1.34,0,0,1-.08.38,5.67,5.67,0,0,1-.42,1,7.27,7.27,0,0,1-2.3,2.65h0l-.24.15.08-.27a7.26,7.26,0,0,1,1.94-2.9l.74-.74C218.78,310.92,218.88,310.83,218.89,310.84Z" style="fill:#fff"></path><path d="M219.72,308.7s.09,0,.25.1a2.93,2.93,0,0,1,.62.42,3.4,3.4,0,0,1,1.13,2.15v.06l.06.29-.23-.2a6.65,6.65,0,0,1-1.48-1.9,2.6,2.6,0,0,1-.36-.92,9.82,9.82,0,0,0,2,2.67l-.17.09v0a3.59,3.59,0,0,0-1-2.08C220.05,308.91,219.7,308.73,219.72,308.7Z" style="fill:#fff"></path><path d="M116.63,254.05a10.58,10.58,0,0,1-.15,1.62c-.15,1.12-.35,2.59-.59,4.36-.56,3.77-1.32,8.81-2.16,14.38s-1.6,10.69-2.12,14.38c-.25,1.77-.47,3.24-.63,4.36a8.78,8.78,0,0,1-.29,1.59,10.81,10.81,0,0,1,.09-1.62c.09-1,.25-2.53.46-4.38.43-3.7,1.12-8.8,2-14.41s1.69-10.68,2.31-14.35c.3-1.77.56-3.23.75-4.34A9.12,9.12,0,0,1,116.63,254.05Z" style="fill:#263238"></path><path d="M114.72,228.31a2.84,2.84,0,0,1,.49.63,15.41,15.41,0,0,1,1.06,1.89,20.53,20.53,0,0,1,1.15,3,26,26,0,0,1,.76,3.87,36,36,0,0,1,0,7.12,13.18,13.18,0,0,1-.44,2.92,23.44,23.44,0,0,1,.07-2.94,46,46,0,0,0-.18-7A28,28,0,0,0,117,234a24,24,0,0,0-1-3C115.23,229.32,114.64,228.36,114.72,228.31Z" style="fill:#263238"></path><path d="M95.88,327.57a.7.7,0,0,1,.25,0l.71.18a18.81,18.81,0,0,0,2.77.41,39,39,0,0,0,10.27-1c2.14-.45,4.51-.95,7-1.53s5.07-1.6,7.78-2.61c5.42-2,11.32-4.44,17.48-7l.77-.33-.13.35c-3.27-6.59-6.37-12.82-9.09-18.31l.21.13c-4.05,0-7.76-.25-11.06-.36s-6.19-.18-8.58-.17-4.26.11-5.54.25-2,.26-2,.22a2.38,2.38,0,0,1,.5-.12,12.94,12.94,0,0,1,1.45-.25,51.86,51.86,0,0,1,5.56-.38c2.39-.05,5.29,0,8.59.06s7,.27,11.05.28H134l.07.13,9.14,18.29.12.25-.25.11-.77.33c-6.17,2.6-12.08,5-17.52,7-2.73,1-5.33,1.93-7.84,2.58s-4.88,1-7,1.47a37,37,0,0,1-10.35.84A12.29,12.29,0,0,1,95.88,327.57Z" style="fill:#263238"></path><path d="M113.24,297.28c-.07.06-.63-.58-1.77-1.29a12.67,12.67,0,0,0-4.88-1.72,28.7,28.7,0,0,0-5.26-.16,11.28,11.28,0,0,1-2.21,0,8.25,8.25,0,0,1,2.18-.38,21.75,21.75,0,0,1,5.36,0,11.44,11.44,0,0,1,5,1.92A4.65,4.65,0,0,1,113.24,297.28Z" style="fill:#263238"></path><g style="opacity:0.30000000000000004"><path d="M112.81,297.2a24.37,24.37,0,0,0-10.7.78c-2.12.64-4.27,1.67-5.46,3.54-.38.6-.61,1.48-.1,2a1.64,1.64,0,0,0,1.76.05,16.65,16.65,0,0,0,3.35-2.25,22.29,22.29,0,0,1,5.53-3.24,12.55,12.55,0,0,1,6.32-.79"></path></g><g style="opacity:0.30000000000000004"><path d="M111.7,295.92c-.75-2.1-3.51-4.06-5.29-4.67-4.06-1.39-8.73-1.9-12.32.43a1.44,1.44,0,0,0-.81,1.06c0,.64.69,1,1.31,1.2,2.56.71,5.27.28,7.92,0s5.47-.29,7.76,1.06"></path></g><g style="opacity:0.30000000000000004"><path d="M110.86,293.29a64.24,64.24,0,0,0,5.46-37.2Z"></path></g><path d="M109.92,245.67s-.13-.67-.43-1.71a16.33,16.33,0,0,0-4.28-7.23c-.78-.76-1.32-1.17-1.29-1.2a2.83,2.83,0,0,1,.39.26,11,11,0,0,1,1,.83A15,15,0,0,1,108,240a14.83,14.83,0,0,1,1.63,4,10.2,10.2,0,0,1,.25,1.27A1.74,1.74,0,0,1,109.92,245.67Z" style="fill:#fff"></path><path d="M106.92,238.49a1.42,1.42,0,0,1-.38,0,8,8,0,0,1-1,0,9.91,9.91,0,0,1-3.3-.89l-.33-.15.35-.05h0a7.89,7.89,0,0,1,3.39.51,8.32,8.32,0,0,1,1,.39,1.4,1.4,0,0,1,.33.18s-.51-.18-1.34-.43a8.35,8.35,0,0,0-3.32-.44h0l0-.2a11.19,11.19,0,0,0,3.24.94C106.38,238.47,106.92,238.46,106.92,238.49Z" style="fill:#fff"></path><path d="M108.32,240.16a8.42,8.42,0,0,1,0-1.44,7.76,7.76,0,0,0-.54-3.36h.2v0a7.78,7.78,0,0,0,0,3.41c.17.87.43,1.36.39,1.38a1.18,1.18,0,0,1-.19-.34,4.87,4.87,0,0,1-.34-1,7.22,7.22,0,0,1-.06-3.5v0l.07-.26.12.25a7.18,7.18,0,0,1,.49,3.45c0,.35,0,.7,0,1.05A1.27,1.27,0,0,1,108.32,240.16Z" style="fill:#fff"></path><path d="M109.14,242.31a.73.73,0,0,1-.26.09,3.06,3.06,0,0,1-.74.1,3.45,3.45,0,0,1-2.29-.85l0,0-.24-.19h.31a6.83,6.83,0,0,1,2.37.43,3,3,0,0,1,.89.45,10,10,0,0,0-3.26-.67l.06-.19,0,0a3.55,3.55,0,0,0,2.16.86C108.75,242.37,109.13,242.27,109.14,242.31Z" style="fill:#fff"></path><path d="M106.15,287.71s-.13-.66-.43-1.71a16.28,16.28,0,0,0-1.67-3.89,16.66,16.66,0,0,0-2.61-3.34c-.78-.76-1.32-1.17-1.29-1.2a2.05,2.05,0,0,1,.39.27,9.51,9.51,0,0,1,1,.83,15.16,15.16,0,0,1,2.69,3.33,14.83,14.83,0,0,1,1.63,4,8.47,8.47,0,0,1,.25,1.28A1.67,1.67,0,0,1,106.15,287.71Z" style="fill:#fff"></path><path d="M103.15,280.53s-.13,0-.38.05a10.33,10.33,0,0,1-1,0,10.16,10.16,0,0,1-3.3-.89l-.33-.16.35,0h0a7.75,7.75,0,0,1,3.39.5c.42.15.74.29,1,.39a1.16,1.16,0,0,1,.33.18s-.51-.18-1.34-.43a8.54,8.54,0,0,0-3.32-.44h0l0-.19a11.31,11.31,0,0,0,3.23.93C102.61,280.51,103.15,280.5,103.15,280.53Z" style="fill:#fff"></path><path d="M104.55,282.2a8.42,8.42,0,0,1,0-1.44,7.72,7.72,0,0,0-.54-3.35l.2,0v0a7.78,7.78,0,0,0,0,3.41c.17.87.43,1.37.39,1.38a1,1,0,0,1-.19-.34,4.67,4.67,0,0,1-.34-1,7.21,7.21,0,0,1-.06-3.5v0l.07-.27.12.26a7.31,7.31,0,0,1,.5,3.45l-.06,1.05C104.58,282.07,104.57,282.2,104.55,282.2Z" style="fill:#fff"></path><path d="M105.37,284.35s-.09,0-.26.1a3.15,3.15,0,0,1-.74.09,3.45,3.45,0,0,1-2.29-.85l0,0-.24-.19h.31a6.85,6.85,0,0,1,2.37.42,3,3,0,0,1,.89.45,10.26,10.26,0,0,0-3.26-.67l.06-.18,0,0a3.63,3.63,0,0,0,2.16.87C105,284.42,105.36,284.32,105.37,284.35Z" style="fill:#fff"></path><path d="M93.38,317.15s-.14-.66-.43-1.71a16.48,16.48,0,0,0-4.28-7.23c-.78-.76-1.32-1.17-1.3-1.2a2.06,2.06,0,0,1,.4.26,11.09,11.09,0,0,1,1,.84,14.92,14.92,0,0,1,2.69,3.33,15.17,15.17,0,0,1,1.63,4,12.07,12.07,0,0,1,.25,1.28A2.34,2.34,0,0,1,93.38,317.15Z" style="fill:#fff"></path><path d="M90.38,310a1,1,0,0,1-.38,0,9.49,9.49,0,0,1-4.35-.93l-.32-.15.35,0h0a7.8,7.8,0,0,1,3.4.5,10.2,10.2,0,0,1,1,.39,1.67,1.67,0,0,1,.34.18s-.52-.18-1.35-.43a8.48,8.48,0,0,0-3.31-.44h0l0-.19a11.49,11.49,0,0,0,3.23.93C89.83,310,90.38,309.94,90.38,310Z" style="fill:#fff"></path><path d="M91.78,311.64a9,9,0,0,1,0-1.44,7.76,7.76,0,0,0-.53-3.36h.19v0a7.78,7.78,0,0,0,0,3.41,10.6,10.6,0,0,0,.39,1.38,1.12,1.12,0,0,1-.2-.34,5.29,5.29,0,0,1-.34-1,7.36,7.36,0,0,1,0-3.5v0l.08-.27.12.25a7.33,7.33,0,0,1,.49,3.46l-.06,1.05A1.52,1.52,0,0,1,91.78,311.64Z" style="fill:#fff"></path><path d="M92.59,313.79a.86.86,0,0,1-.26.1,3.15,3.15,0,0,1-.74.09,3.43,3.43,0,0,1-2.28-.85l0,0-.24-.19h.3a7,7,0,0,1,2.37.43,3,3,0,0,1,.89.45,10.17,10.17,0,0,0-3.26-.67l.07-.18,0,0a3.63,3.63,0,0,0,2.16.87C92.21,313.85,92.58,313.75,92.59,313.79Z" style="fill:#fff"></path><path d="M104.55,258.45s-.67.07-1.74.25a16.52,16.52,0,0,0-4,1.25,17.12,17.12,0,0,0-3.59,2.25c-.84.69-1.3,1.19-1.33,1.16a2.39,2.39,0,0,1,.3-.37,12,12,0,0,1,.93-.9,14.93,14.93,0,0,1,7.71-3.54,11.24,11.24,0,0,1,1.3-.11A2.16,2.16,0,0,1,104.55,258.45Z" style="fill:#fff"></path><path d="M97.1,260.68a1.34,1.34,0,0,1,0,.39,6.74,6.74,0,0,1-.14,1,9.81,9.81,0,0,1-1.23,3.19l-.18.31v-.36h0a7.72,7.72,0,0,1,.86-3.32,10.14,10.14,0,0,1,.48-.92,2,2,0,0,1,.22-.32s-.23.49-.57,1.3a8.24,8.24,0,0,0-.78,3.24h0l-.2-.05a11.11,11.11,0,0,0,1.27-3.12C97,261.22,97.07,260.68,97.1,260.68Z" style="fill:#fff"></path><path d="M98.91,259.46a8,8,0,0,1-1.44-.1,7.73,7.73,0,0,0-3.39.18v-.2h0a7.67,7.67,0,0,0,3.39.36,12.35,12.35,0,0,0,1.42-.25,1.21,1.21,0,0,1-.36.16,4.89,4.89,0,0,1-1,.24,7.36,7.36,0,0,1-3.49-.32h0l-.26-.1.27-.09a7.34,7.34,0,0,1,3.48-.13l1,.17A2,2,0,0,1,98.91,259.46Z" style="fill:#fff"></path><path d="M101.13,258.88a.78.78,0,0,1,.07.27,4.1,4.1,0,0,1,0,.74,3.5,3.5,0,0,1-1.09,2.19l0,0-.21.21,0-.3a6.76,6.76,0,0,1,.67-2.31,2.93,2.93,0,0,1,.54-.84,10,10,0,0,0-1,3.17L100,262l0,0a3.55,3.55,0,0,0,1.09-2.05C101.15,259.27,101.09,258.88,101.13,258.88Z" style="fill:#fff"></path><path d="M122.24,309.63s-.68.06-1.75.25a16.34,16.34,0,0,0-7.63,3.5c-.84.69-1.31,1.19-1.33,1.16a1.79,1.79,0,0,1,.3-.37,10.41,10.41,0,0,1,.93-.9,14.93,14.93,0,0,1,7.71-3.54,11.1,11.1,0,0,1,1.29-.11A1.63,1.63,0,0,1,122.24,309.63Z" style="fill:#fff"></path><path d="M114.79,311.86a1.25,1.25,0,0,1,0,.38,6.43,6.43,0,0,1-.14,1,10.09,10.09,0,0,1-1.23,3.2l-.19.3v-.35h0a8,8,0,0,1,.86-3.32,9.37,9.37,0,0,1,.49-.91,1.51,1.51,0,0,1,.22-.32s-.24.49-.57,1.29a8.51,8.51,0,0,0-.79,3.25h0l-.19-.05a11.23,11.23,0,0,0,1.27-3.12C114.71,312.4,114.75,311.86,114.79,311.86Z" style="fill:#fff"></path><path d="M116.59,310.64a7.89,7.89,0,0,1-1.43-.1,7.76,7.76,0,0,0-3.4.17v-.19h0a8,8,0,0,0,3.39.36,11.85,11.85,0,0,0,1.41-.25.93.93,0,0,1-.35.16,5.93,5.93,0,0,1-1,.23,7.22,7.22,0,0,1-3.49-.31h0l-.26-.1.26-.09a7.26,7.26,0,0,1,3.49-.13l1,.17A1.54,1.54,0,0,1,116.59,310.64Z" style="fill:#fff"></path><path d="M118.82,310.06a.66.66,0,0,1,.06.26,2.9,2.9,0,0,1,0,.75,3.46,3.46,0,0,1-1.08,2.18l0,0-.21.22,0-.3a6.81,6.81,0,0,1,.68-2.32,3,3,0,0,1,.54-.83,9.64,9.64,0,0,0-1,3.17l-.18-.08,0,0a3.63,3.63,0,0,0,1.09-2.06C118.84,310.45,118.78,310.06,118.82,310.06Z" style="fill:#fff"></path><path d="M133.11,281.42s-.67.06-1.74.25a16.52,16.52,0,0,0-4.05,1.25,17.12,17.12,0,0,0-3.59,2.25c-.84.69-1.3,1.19-1.33,1.16a2.39,2.39,0,0,1,.3-.37,10.79,10.79,0,0,1,.94-.9,14.85,14.85,0,0,1,7.7-3.54,11.24,11.24,0,0,1,1.3-.11A1.57,1.57,0,0,1,133.11,281.42Z" style="fill:#fff"></path><path d="M125.66,283.65s0,.14,0,.38a7.53,7.53,0,0,1-.13,1,10.14,10.14,0,0,1-1.24,3.2l-.18.3v-.35h0a7.8,7.8,0,0,1,.86-3.32c.19-.39.36-.7.48-.91a2,2,0,0,1,.22-.32s-.23.49-.57,1.29a8.34,8.34,0,0,0-.78,3.25h0l-.2-.05a11.23,11.23,0,0,0,1.27-3.12C125.58,284.19,125.63,283.65,125.66,283.65Z" style="fill:#fff"></path><path d="M127.47,282.43a8,8,0,0,1-1.44-.1,7.59,7.59,0,0,0-3.39.18v-.2h0a8,8,0,0,0,3.39.36,12.35,12.35,0,0,0,1.42-.25,1.21,1.21,0,0,1-.36.16,5.73,5.73,0,0,1-1,.23,7.22,7.22,0,0,1-3.49-.31h0l-.26-.1.27-.09a7.22,7.22,0,0,1,3.48-.13l1,.17A1.74,1.74,0,0,1,127.47,282.43Z" style="fill:#fff"></path><path d="M129.69,281.85s0,.09.07.27a4.06,4.06,0,0,1,0,.74,3.46,3.46,0,0,1-1.09,2.18l0,0-.21.22,0-.3a6.83,6.83,0,0,1,.67-2.32,3,3,0,0,1,.54-.83,10.23,10.23,0,0,0-1,3.17l-.17-.08,0,0a3.54,3.54,0,0,0,1.09-2.06C129.71,282.24,129.65,281.85,129.69,281.85Z" style="fill:#fff"></path><path d="M118.14,336.28s-.67.07-1.74.25a16.52,16.52,0,0,0-4.05,1.25,17.12,17.12,0,0,0-3.59,2.25c-.84.69-1.3,1.19-1.33,1.16a2.39,2.39,0,0,1,.3-.37,10.79,10.79,0,0,1,.94-.9,15.27,15.27,0,0,1,3.59-2.33,15.56,15.56,0,0,1,4.11-1.21,11.24,11.24,0,0,1,1.3-.11A2.16,2.16,0,0,1,118.14,336.28Z" style="fill:#fff"></path><path d="M110.69,338.51a1,1,0,0,1,0,.39,7.92,7.92,0,0,1-.13,1,10.1,10.1,0,0,1-1.24,3.19l-.18.31v-.36h0a7.72,7.72,0,0,1,.86-3.32c.19-.4.36-.71.48-.92a2,2,0,0,1,.22-.32s-.23.49-.57,1.3a8.24,8.24,0,0,0-.78,3.24h0l-.2-.05a11.11,11.11,0,0,0,1.27-3.12C110.61,339.05,110.66,338.51,110.69,338.51Z" style="fill:#fff"></path><path d="M112.5,337.29a8,8,0,0,1-1.44-.1,7.74,7.74,0,0,0-3.39.18v-.2h0a7.68,7.68,0,0,0,3.39.36,12.35,12.35,0,0,0,1.42-.25,1.21,1.21,0,0,1-.36.16,4.89,4.89,0,0,1-1,.24,7.37,7.37,0,0,1-3.49-.32h0l-.26-.1.27-.09a7.34,7.34,0,0,1,3.48-.13l1,.17A1.74,1.74,0,0,1,112.5,337.29Z" style="fill:#fff"></path><path d="M114.72,336.71s0,.09.07.27a4.1,4.1,0,0,1,0,.74,3.5,3.5,0,0,1-1.09,2.19l0,0-.21.21,0-.3a6.76,6.76,0,0,1,.67-2.31,2.93,2.93,0,0,1,.54-.84,10.35,10.35,0,0,0-1,3.17l-.17-.08,0,0a3.55,3.55,0,0,0,1.09-2.05C114.74,337.1,114.68,336.71,114.72,336.71Z" style="fill:#fff"></path><path d="M172.32,255.94a8.06,8.06,0,0,1,6.42-2.26c3.12.28,17.46,6.63,23.63,9.51,2,.93,3.84,1.34,5.06,3.15l.33.5a15,15,0,0,1,2.94-3.17c2.53-1.41,23.68-5.55,23.68-5.55l1.2,2.43-31.52,47.23-22.44-.48-14.32-8.12L158,293.57Z" style="fill:#ebebeb"></path><polygon points="211.47 269.45 204.36 269.61 170.87 255.32 151.1 300.03 186.63 311.64 194.02 311.64 213.23 306.88 237.69 260.55 211.47 269.45" style="fill:#455a64"></polygon><path d="M204.53,270.16c.14,0-3.68,9.49-8.51,21.08s-8.87,20.94-9,20.88,3.68-9.49,8.52-21.08S204.4,270.1,204.53,270.16Z" style="fill:#263238"></path><path d="M211.47,269.45c.13.05-3.68,9.49-8.52,21.08s-8.87,20.94-9,20.88,3.68-9.49,8.52-21.08S211.33,269.39,211.47,269.45Z" style="fill:#263238"></path><path d="M166.35,280.06l.49.17,1.32.49,4.91,1.89,17,6.63-.31.13c2-4.63,4.3-9.72,6.66-15.08l.14.35-.33-.14-23-10,.28-.11-5.19,11.36-1.47,3.17c-.16.34-.29.62-.4.84a1.33,1.33,0,0,1-.16.29s0-.08.1-.27l.34-.82,1.35-3.16c1.23-2.81,3-6.78,5.05-11.58l.08-.19.19.08,23,9.9.32.14.24.1-.1.24c-2.38,5.35-4.64,10.44-6.7,15.06l-.09.21-.22-.09-17.06-6.91-4.82-2-1.26-.53A1.83,1.83,0,0,1,166.35,280.06Z" style="fill:#263238"></path><path d="M192.54,282.59a11.54,11.54,0,0,1-.8-1.65l-1.94-4.51.27.11-9,3.56-.23.09-.1-.23-.38-.9c-.77-1.86-1.51-3.65-2.2-5.29l.31.13c-3.2,1.14-6,2.09-7.91,2.75l-2.29.75a3.44,3.44,0,0,1-.84.21,4.08,4.08,0,0,1,.78-.37l2.25-.88c1.93-.74,4.66-1.75,7.85-2.92l.22-.08.09.22,2.22,5.28.38.9-.34-.14,9-3.46.19-.08.07.19,1.78,4.58A10.17,10.17,0,0,1,192.54,282.59Z" style="fill:#263238"></path><path d="M185.42,274c-.09,0,0-.71-.8-1.25a1.61,1.61,0,0,0-1.48-.18,1.53,1.53,0,0,0,0,2.86,1.61,1.61,0,0,0,1.48-.18c.75-.55.71-1.28.8-1.25s.08.16.05.45a1.74,1.74,0,0,1-.63,1.09,1.93,1.93,0,0,1-1.86.34,2,2,0,0,1,0-3.76,1.93,1.93,0,0,1,1.86.33,1.76,1.76,0,0,1,.63,1.09C185.5,273.83,185.45,274,185.42,274Z" style="fill:#263238"></path><path d="M187,295.33c-.05.14-5.2-1.77-11.5-4.26s-11.37-4.61-11.32-4.74,5.2,1.77,11.51,4.26S187.07,295.2,187,295.33Z" style="fill:#263238"></path><path d="M185.85,297.85c-.06.14-5.21-1.77-11.51-4.26S163,289,163,288.85s5.2,1.77,11.5,4.26S185.9,297.72,185.85,297.85Z" style="fill:#263238"></path><path d="M184.67,300.37c0,.14-5.2-1.77-11.5-4.26s-11.37-4.61-11.31-4.74,5.2,1.77,11.5,4.26S184.73,300.24,184.67,300.37Z" style="fill:#263238"></path><path d="M223.48,280.28a54.11,54.11,0,0,1-6.91,3,57.09,57.09,0,0,1-7.11,2.52,53,53,0,0,1,6.92-3A54.79,54.79,0,0,1,223.48,280.28Z" style="fill:#263238"></path><path d="M224.74,282.12a91.46,91.46,0,0,1-9.07,3.85,93.83,93.83,0,0,1-9.25,3.36,90.6,90.6,0,0,1,9.06-3.85A96.61,96.61,0,0,1,224.74,282.12Z" style="fill:#263238"></path><path d="M224,268.2a13,13,0,0,1-5,1.49,6.79,6.79,0,0,1,2.43-1A7.07,7.07,0,0,1,224,268.2Z" style="fill:#263238"></path><path d="M204.38,279.61c.13.06-1.93,5.21-4.6,11.5s-4.95,11.36-5.08,11.3,1.93-5.2,4.6-11.5S204.25,279.55,204.38,279.61Z" style="fill:#fff"></path><path d="M135.07,299.67s3.17-5.88,4.37-6.86,6.25-2.25,6.25-2.25,13.85-.15,14.45,1.58-2.1,3.46-2.1,3.46l-8.81,1.13a2.54,2.54,0,0,0-1.55.74,1.28,1.28,0,0,0-.37.73,1.05,1.05,0,0,0,1.29,1.2c.74-.15,11.84-3.57,12.45-3.57s2.18.3,2,1.73a4.34,4.34,0,0,1-1.36,2.48s3-.54,4,0,.73,1.6.28,2.58a7.51,7.51,0,0,1-2.43,2.1s.15-.08-.83,1.35-8.5,4.9-8.5,4.9-5.88,2.41-7.61,2.63-4.44.68-4.44.68-5-9.55-5.69-11.08C135.56,301.31,134.85,299.57,135.07,299.67Z" style="fill:#ffc4af"></path><path d="M162,300a8,8,0,0,1-1.81,1.41,26.34,26.34,0,0,1-4.94,2.52,20.36,20.36,0,0,1-5.4,1.28,6.77,6.77,0,0,1-2.3-.06,22.81,22.81,0,0,1,2.26-.31,25.68,25.68,0,0,0,5.26-1.4A69.71,69.71,0,0,0,162,300Z" style="fill:#df947f"></path><path d="M163.56,304.64a38.08,38.08,0,0,1-5.86,2.71c-3.29,1.36-6,2.32-6.11,2.08a2.22,2.22,0,0,1,.45-.23l1.26-.55c1.07-.47,2.55-1.1,4.2-1.78A41.34,41.34,0,0,1,163.56,304.64Z" style="fill:#df947f"></path><path d="M142.92,296.62c0,.14-.9,0-1.44-.89s-.29-1.74-.15-1.68.15.72.59,1.41S143,296.48,142.92,296.62Z" style="fill:#df947f"></path><path d="M146.77,303.91c-.07.13-.72-.24-.86-1.07s.33-1.39.44-1.29,0,.59.08,1.2S146.86,303.79,146.77,303.91Z" style="fill:#df947f"></path><path d="M225.38,280.07s1.39-3.06,3.75-2.78,4.38.76,4.17,2.78a4.41,4.41,0,0,1-1.94,3.06l-1.43,1.59s2.12,2.72,2.26,4.94a4,4,0,0,1-1.74,3.41s1.84,2.77.56,5.28a17.87,17.87,0,0,1-1.66,2.92,4.07,4.07,0,0,1-2.86,3.13c-2.57.83-5.07-1-5.07-1l-8.19-7.3a4.2,4.2,0,0,1,0-1.87,2.45,2.45,0,0,1-1.2-2.57,2.11,2.11,0,0,1,2-1.74,3.29,3.29,0,0,1,.48-2.92c1.05-1.11,12.79-2.23,12.79-2.23l.84-1.25s-2.78-.21-3.13-1.46A2.17,2.17,0,0,1,225.38,280.07Z" style="fill:#ffc4af"></path><path d="M226.62,292.06a18,18,0,0,1-6.41-.06,18.29,18.29,0,0,1-6.15-1.84c.06-.15,2.76.81,6.22,1.32S226.61,291.9,226.62,292.06Z" style="fill:#df947f"></path><path d="M225.93,298.23a33.05,33.05,0,0,1-6.53-1.53,32.45,32.45,0,0,1-6.26-2.37,65.64,65.64,0,0,1,6.42,1.87A61.57,61.57,0,0,1,225.93,298.23Z" style="fill:#df947f"></path><path d="M230.92,281.65c.05,0,0,.29-.2.66a3,3,0,0,1-1.23,1.09,3,3,0,0,1-1.61.31c-.42,0-.65-.18-.64-.24s1,0,2-.54S230.78,281.58,230.92,281.65Z" style="fill:#df947f"></path><path d="M116.11,362s9,6,26.91,6,22-1.24,22-1.24l16.77-15.22,36.77,64.4s29.19-18.09,29.38-17.51c.35.35-27.23-61-33.26-71.63a79.8,79.8,0,0,0-6.84-9.91,26,26,0,0,0-26.13-9.49,119.35,119.35,0,0,0-15.28,4.27c-13.35,4.89-24.67,8.18-34.33,16.74C120.93,338.27,114.17,357.48,116.11,362Z" style="fill:#263238"></path><path d="M177.59,344.09s-13.23,9.16-12.87,16.5c.29,6.14,8.47,96.65,8.47,96.65l32.57-.56L208,397.42Z" style="fill:#263238"></path><path d="M210.61,402l-.14-.21c-.11-.18-.24-.4-.39-.67l-1.46-2.58L203.34,389l-17.22-31.58-6.85-12.64.25.13a16.55,16.55,0,0,0-11.79,7.48,15.86,15.86,0,0,0-2.2,5.69,26.68,26.68,0,0,0-.36,5.28c.09,3.23.38,5.8.46,7.57.05.89.08,1.57.07,2a4.67,4.67,0,0,1,0,.7,3.51,3.51,0,0,1-.07-.7c0-.49-.09-1.17-.16-2-.13-1.76-.47-4.32-.61-7.57a26.46,26.46,0,0,1,.31-5.35,16.24,16.24,0,0,1,2.21-5.86,16.93,16.93,0,0,1,12.09-7.74l.17,0,.08.15,6.86,12.64c6.67,12.34,12.71,23.51,17.1,31.65l5.13,9.62,1.37,2.63.34.69A.76.76,0,0,1,210.61,402Z" style="fill:#455a64"></path><path d="M183.4,331.78a20.67,20.67,0,0,0-3.48,6.3,20.91,20.91,0,0,0-.64,7.17,6,6,0,0,1-.44-2.12,14.11,14.11,0,0,1,.58-5.2,13.89,13.89,0,0,1,2.43-4.64A6,6,0,0,1,183.4,331.78Z" style="fill:#455a64"></path><path d="M176.55,329.28c.09,0-.18.93-.37,2.43A18.52,18.52,0,0,0,178.31,343c.72,1.32,1.3,2.07,1.23,2.13a7.39,7.39,0,0,1-1.55-1.94,16.34,16.34,0,0,1-2.16-5.59,16.64,16.64,0,0,1,0-6A7.48,7.48,0,0,1,176.55,329.28Z" style="fill:#455a64"></path></g></svg>